<svg width="50" height="50" viewBox="0 0 50 50" fill="none" xmlns="http://www.w3.org/2000/svg">
<g clip-path="url(#clip0)">
<path d="M44.6368 35.4086C43.2693 34.7202 40.006 32.6486 39.2403 28.2932C39.1703 27.8948 38.791 27.6289 38.392 27.6986C37.9936 27.7687 37.7274 28.1483 37.7975 28.5469C38.6761 33.5454 42.3973 35.9192 43.9682 36.7122C43.5449 37.9384 42.5855 40.3532 40.8972 42.8181C39.1027 45.4418 37.069 48.4155 34.0495 48.4728C31.0175 48.5229 29.922 46.5414 26.0406 46.5414C22.1586 46.5414 20.9236 48.4186 18.0497 48.5324C15.3444 48.6359 13.1744 45.8312 11.0063 42.6976C6.99999 36.9026 3.82323 26.1677 7.95859 18.99C9.68779 15.9887 12.5509 13.9539 15.8136 13.4074C16.2125 13.3406 16.4817 12.963 16.4149 12.564C16.3481 12.165 15.9708 11.8955 15.5715 11.9626C11.8753 12.5817 8.63779 14.8766 6.68906 18.2587C2.26884 25.9308 5.45439 37.2439 9.80136 43.531C11.59 46.1164 14.2768 50.0005 17.9113 50.0001C21.188 50.0001 22.4185 48.0065 26.0405 48.0063C29.5721 48.0063 30.6102 50.0022 34.0767 49.9374C37.8517 49.8658 40.2108 46.4166 42.106 43.6454C43.8956 41.0327 44.9106 38.4733 45.3562 37.1802C45.5922 36.4955 45.2829 35.7339 44.6368 35.4086Z" fill="white"/>
<path d="M35.5347 1.41659C35.5163 0.542568 34.7252 -0.115733 33.8574 0.0170794C28.1648 0.886708 24.0484 6.38886 24.2292 11.2201C24.2584 11.9958 24.9014 12.6118 25.6717 12.6118C25.6854 12.6118 25.699 12.6116 25.7127 12.6112C31.0396 12.4605 35.651 6.92577 35.5347 1.41659ZM25.6925 11.1463C25.6071 8.6787 26.9043 6.26405 28.1521 4.82138C29.5904 3.13729 31.9688 1.78954 34.0705 1.46542C34.1583 6.12489 30.2444 11.0007 25.6925 11.1463Z" fill="white"/>
<path d="M43.7166 16.159C41.5076 13.3431 38.3626 11.9461 34.7483 11.6766C30.5879 11.3686 27.0413 13.9092 25.4032 13.9092C24.0625 13.9092 21.7533 12.4915 19.2565 11.9839C18.8598 11.903 18.4734 12.1593 18.3928 12.5557C18.3122 12.9521 18.5681 13.3388 18.9645 13.4194C21.4079 13.9163 23.6266 15.3741 25.4032 15.3741C27.5391 15.3741 30.8101 12.8535 34.6397 13.1374C37.8275 13.3753 40.5983 14.5661 42.5533 17.0496C41.2813 17.9659 38.2795 20.5564 37.709 24.9067C37.6564 25.3078 37.939 25.6756 38.3399 25.7282C38.3723 25.7324 38.4044 25.7345 38.4361 25.7345C38.7982 25.7345 39.113 25.4659 39.1615 25.0973C39.6586 21.3068 42.302 19.035 43.4152 18.2343C44.074 17.7606 44.235 16.8196 43.7166 16.159Z" fill="white"/>
</g>
<defs>
<clipPath id="clip0">
<rect width="50" height="50" fill="white"/>
</clipPath>
</defs>
</svg>
