<svg width="40" height="40" viewBox="0 0 40 40" fill="none" xmlns="http://www.w3.org/2000/svg">
<g clip-path="url(#clip0)">
<path d="M36.2347 15.8285L8.734 0.647259C7.1244 -0.240021 5.21737 -0.215027 3.63527 0.72224C2.14314 1.60452 1.25336 3.13664 1.25336 4.82122V35.1787C1.25336 36.8658 2.14564 38.3979 3.63777 39.2802C4.45006 39.7601 5.34734 40 6.24712 40C7.09941 40 7.95169 39.785 8.7365 39.3502L36.2372 24.1739C37.8093 23.3041 38.7491 21.7445 38.7466 19.9975C38.7466 18.2529 37.8068 16.6958 36.2347 15.8285ZM35.025 21.987L7.5268 37.1632C6.6995 37.6181 5.71975 37.6056 4.90745 37.1257C4.17263 36.6933 3.75274 35.9835 3.75274 35.1787V4.82122C3.75274 4.01642 4.17263 3.3066 4.90245 2.87421C5.32235 2.62677 5.78473 2.5043 6.24712 2.5043C6.68451 2.5043 7.1219 2.61427 7.5243 2.83422L35.0275 18.0179C35.7873 18.4378 36.2447 19.1802 36.2447 20C36.2447 20.8198 35.7898 21.5646 35.025 21.987Z" fill="white"/>
<path d="M30.6061 25.4061L4.51255 1.33459C4.00518 0.869702 3.21537 0.899695 2.74549 1.40707C2.27811 1.91444 2.3081 2.70425 2.81547 3.17163L28.909 27.2407C29.1489 27.4631 29.4539 27.5731 29.7563 27.5731C30.0937 27.5731 30.4286 27.4406 30.6761 27.1707C31.1459 26.6633 31.1135 25.8735 30.6061 25.4061Z" fill="white"/>
<path d="M29.2139 12.0219C28.7265 11.5346 27.9342 11.5346 27.4469 12.0219L2.703 36.7633C2.21562 37.2507 2.21562 38.043 2.703 38.5304C2.94794 38.7728 3.26786 38.8953 3.58778 38.8953C3.9077 38.8953 4.22762 38.7728 4.47006 38.5304L29.2139 13.789C29.7013 13.3016 29.7013 12.5093 29.2139 12.0219Z" fill="white"/>
</g>
<defs>
<clipPath id="clip0">
<rect width="40" height="40" fill="white"/>
</clipPath>
</defs>
</svg>
